<svg width="134" height="134" viewBox="0 0 134 134" fill="none" xmlns="http://www.w3.org/2000/svg">
<g filter="url(#filter0_d_194_239)">
<path d="M81.63 126H44.37C9.1215 126 0 116.878 0 81.63V44.37C0 9.1215 9.1215 0 44.37 0H81.6255C116.879 0 126 9.1215 126 44.37V81.63C126 116.878 116.878 126 81.63 126Z" fill="#FAFAFA"/>
</g>
<path d="M81.63 126H44.37C9.1215 126 0 116.878 0 81.63V44.37C0 9.1215 9.1215 0 44.37 0H81.6255C116.879 0 126 9.1215 126 44.37V81.63C126 116.878 116.878 126 81.63 126ZM44.37 4.5C11.5785 4.5 4.5 11.5785 4.5 44.37V81.63C4.5 114.422 11.5785 121.5 44.37 121.5H81.6255C114.417 121.5 121.495 114.422 121.495 81.63V44.37C121.5 11.5785 114.422 4.5 81.63 4.5H44.37Z" fill="#373737"/>
<path d="M105.699 93H95.5069C91.7336 93 89.8423 90.8898 86.6979 87.396C85.4587 86.0217 83.9401 84.3307 81.923 82.309C76.3609 76.9472 74.0038 76.4068 73.1373 76.4068C73.1047 76.6351 73.0768 76.9984 73.0768 77.5668V86.7065C73.0768 91.9286 69.2383 93 63.4665 93C51.3733 93 39.0379 85.6537 30.4665 73.3509C18.1218 56.045 13.9619 41.9767 13.9619 38.2174C13.9619 34.9053 16.0861 33.0047 19.7848 33.0047H29.9774C34.4494 33.0047 35.8143 35.8602 36.7414 38.5342C41.3299 51.9084 48.0938 61.8727 50.9075 63.8618C50.9308 63.559 50.9494 63.1584 50.9494 62.618V47.6087C50.7584 44.2127 49.6311 42.8152 48.6342 41.5854C47.819 40.5792 46.8966 39.4379 46.8966 37.677C46.8966 35.4317 48.7786 33.0047 51.8205 33.0047H67.8361C70.2305 33.0047 73.0768 34.0575 73.0768 39.0792V59.2733C73.0768 59.3665 73.0814 59.4503 73.0861 59.5295C73.6125 59.1661 74.3625 58.4814 75.4386 57.4099C82.3283 49.7003 87.406 37.4534 87.4572 37.3276C88.673 34.486 90.9463 33 94.0488 33H104.241C106.445 33 108.052 33.6615 109.016 34.9565C109.659 35.8183 110.274 37.3509 109.557 39.7453C108.243 45.7966 96.8066 62.0264 95.5022 63.8571C95.4044 64.0202 95.0084 64.663 94.9572 64.882C94.9712 64.882 95.055 65.1102 95.4417 65.6134C95.9122 66.2609 97.0721 67.3975 98.1948 68.5016C99.583 69.8618 101.153 71.4037 102.401 72.8804C107.898 79.0621 110.521 82.7655 111.439 85.6165C112.203 88.2531 111.527 89.9115 110.819 90.8478C110.097 91.8354 108.616 93 105.699 93ZM73.4168 71.7438C75.5224 71.7438 78.569 72.6056 85.1839 78.9829C87.3081 81.1071 88.8827 82.854 90.1637 84.2795C93.2103 87.6755 93.951 88.3416 95.5022 88.3416H105.695C106.659 88.3416 107.05 88.1227 107.102 88.0621C107.102 88.0621 107.218 87.778 106.99 86.9907C106.133 84.3261 102.21 79.6817 98.8889 75.941C97.6917 74.5248 96.2336 73.0994 94.9386 71.837C93.4991 70.4301 92.3671 69.3168 91.7196 68.413C89.3997 65.427 90.3081 63.4193 91.6358 61.2857C95.0876 56.413 104.069 43.0761 105.052 38.5901C105.187 38.1149 105.22 37.854 105.22 37.7283C105.136 37.7376 104.824 37.6677 104.241 37.6677H94.0488C92.656 37.6677 92.1529 38.2081 91.7569 39.1351C91.5519 39.6335 86.3438 52.2065 78.8252 60.6149C76.4308 63.014 74.7398 64.5233 72.3361 64.5233C70.4494 64.5233 68.4184 62.8789 68.4184 59.278V39.0838C68.4184 38.1894 68.3112 37.8121 68.26 37.6817C68.2087 37.7003 68.083 37.6724 67.8361 37.6677H51.8205C51.5923 37.8447 51.9929 38.3385 52.2584 38.6646C53.4836 40.1786 55.3283 42.4658 55.6078 47.4876L55.6125 62.6273C55.6125 64.486 55.6125 68.8463 51.392 68.8463C45.4153 68.8463 36.4898 52.1273 32.3438 40.0621C31.5146 37.6724 31.128 37.6724 29.982 37.6724H19.7895C18.8764 37.6724 18.6109 37.8494 18.6063 37.8494C18.6249 39.8571 21.5131 52.7748 34.2771 70.6724C41.9914 81.7453 52.8966 88.3463 63.4712 88.3463C68.423 88.3463 68.423 87.6615 68.423 86.7112V77.5714C68.423 74.6879 69.0146 71.7438 73.4168 71.7438Z" fill="#373737"/>
<defs>
<filter id="filter0_d_194_239" x="0" y="0" width="134" height="134" filterUnits="userSpaceOnUse" color-interpolation-filters="sRGB">
<feFlood flood-opacity="0" result="BackgroundImageFix"/>
<feColorMatrix in="SourceAlpha" type="matrix" values="0 0 0 0 0 0 0 0 0 0 0 0 0 0 0 0 0 0 127 0" result="hardAlpha"/>
<feMorphology radius="4" operator="erode" in="SourceAlpha" result="effect1_dropShadow_194_239"/>
<feOffset dx="4" dy="4"/>
<feGaussianBlur stdDeviation="4"/>
<feComposite in2="hardAlpha" operator="out"/>
<feColorMatrix type="matrix" values="0 0 0 0 0 0 0 0 0 0 0 0 0 0 0 0 0 0 0.25 0"/>
<feBlend mode="normal" in2="BackgroundImageFix" result="effect1_dropShadow_194_239"/>
<feBlend mode="normal" in="SourceGraphic" in2="effect1_dropShadow_194_239" result="shape"/>
</filter>
</defs>
</svg>
