<svg width="134" height="134" viewBox="0 0 134 134" fill="none" xmlns="http://www.w3.org/2000/svg">
<g filter="url(#filter0_d_194_244)">
<path d="M81.63 126H44.37C9.1215 126 0 116.878 0 81.63V44.37C0 9.1215 9.1215 0 44.37 0H81.6255C116.879 0 126 9.1215 126 44.37V81.63C126 116.878 116.878 126 81.63 126Z" fill="#FAFAFA"/>
</g>
<path d="M63.0002 26C52.2281 26 43.4385 34.7639 43.4385 45.5043C43.4385 56.2448 52.2281 65.0087 63.0002 65.0087C73.7722 65.0087 82.5618 56.2448 82.5618 45.5043C82.5618 34.7639 73.7722 26 63.0002 26ZM63.0002 31.3194C70.8889 31.3194 77.2268 37.6387 77.2268 45.5043C77.2268 53.37 70.8889 59.6893 63.0002 59.6893C55.1114 59.6893 48.7735 53.37 48.7735 45.5043C48.7735 37.6387 55.1114 31.3194 63.0002 31.3194ZM63.0002 36.6387C60.2586 36.6387 57.8646 37.7596 56.3384 39.4716C54.8121 41.1836 54.1085 43.3618 54.1085 45.5043C54.1085 47.6468 54.8121 49.8251 56.3384 51.5371C57.8646 53.2491 60.2586 54.3699 63.0002 54.3699C65.7418 54.3699 68.1357 53.2491 69.662 51.5371C71.1882 49.8251 71.8918 47.6468 71.8918 45.5043C71.8918 43.3618 71.1882 41.1836 69.662 39.4716C68.1357 37.7596 65.7418 36.6387 63.0002 36.6387ZM63.0002 41.9581C64.408 41.9581 65.1261 42.3887 65.6746 43.004C66.2231 43.6192 66.5568 44.5439 66.5568 45.5043C66.5568 46.4648 66.2231 47.3895 65.6746 48.0047C65.1261 48.6199 64.408 49.0506 63.0002 49.0506C61.5923 49.0506 60.8742 48.6199 60.3257 48.0047C59.7772 47.3895 59.4435 46.4648 59.4435 45.5043C59.4435 44.5439 59.7772 43.6192 60.3257 43.004C60.8742 42.3887 61.5923 41.9581 63.0002 41.9581ZM46.9743 64.2121C44.2678 64.2287 41.6213 65.6025 40.1354 68.0597C37.8704 71.8078 39.1036 76.7556 42.8619 79.0135C45.1468 80.3858 47.5833 81.4115 50.076 82.2793L41.9832 90.6393C41.9583 90.6653 41.934 90.6919 41.9102 90.7189C38.9933 93.9891 39.2934 99.0785 42.5736 101.984C45.8527 104.889 50.9529 104.592 53.8688 101.323L53.7959 101.403L63.0002 91.8998L72.2079 101.403L72.135 101.323C73.7047 103.083 75.9142 104 78.116 104C80.0039 104 81.9172 103.328 83.4302 101.988C83.4302 101.987 83.4302 101.986 83.4302 101.984C86.7084 99.0775 87.01 93.9921 84.0936 90.7224C84.0698 90.6942 84.0455 90.6665 84.0206 90.6393L75.9209 82.2827C78.4141 81.4149 80.8534 80.3858 83.1384 79.0135C86.8953 76.7539 88.13 71.8078 85.8649 68.0597C83.6024 64.314 78.6403 63.0845 74.8789 65.3411C67.7808 69.6039 58.2181 69.6041 51.118 65.3411C50.1779 64.7767 49.1635 64.4319 48.1344 64.2883C47.7485 64.2345 47.361 64.2098 46.9743 64.2121ZM46.8458 69.5073C47.3566 69.4832 47.8834 69.6082 48.3671 69.8986C57.2426 75.2276 68.7552 75.2268 77.6297 69.8986C78.9223 69.1231 80.5192 69.5231 81.2941 70.8059C82.0695 72.0891 81.672 73.6796 80.3841 74.4561C77.2916 76.3133 73.921 77.6447 70.4087 78.4317C69.9467 78.5353 69.5206 78.7596 69.1743 79.0817C68.8279 79.4037 68.5738 79.8119 68.438 80.2642C68.3022 80.7166 68.2897 81.1969 68.4016 81.6557C68.5135 82.1145 68.746 82.5353 69.075 82.8749L80.1131 94.2686C81.1015 95.3888 81.0084 97.0148 79.8874 98.0088C79.3659 98.4706 78.7498 98.6806 78.116 98.6806C77.3764 98.6806 76.6617 98.3955 76.1223 97.7906C76.0974 97.7624 76.072 97.7347 76.0459 97.7075L64.9174 86.2238C64.6687 85.9674 64.3707 85.7636 64.0414 85.6244C63.712 85.4851 63.3579 85.4134 63.0002 85.4134C62.6424 85.4134 62.2883 85.4851 61.9589 85.6244C61.6296 85.7636 61.3316 85.9674 61.0829 86.2238L49.9579 97.7075C49.933 97.7336 49.9087 97.7601 49.8849 97.7871C48.885 98.9082 47.2405 99.0046 46.1164 98.0088C44.9934 97.0139 44.8986 95.3748 45.8976 94.2548L56.9219 82.8715C57.2509 82.5318 57.4833 82.111 57.5952 81.6522C57.7072 81.1934 57.6946 80.7131 57.5588 80.2608C57.423 79.8084 57.1689 79.4002 56.8226 79.0782C56.4762 78.7561 56.0502 78.5318 55.5881 78.4283C52.0775 77.6413 48.7053 76.3133 45.6128 74.4561C44.3242 73.6819 43.9268 72.0899 44.7028 70.8059C45.0911 70.1638 45.6848 69.743 46.3422 69.58C46.5065 69.5392 46.6755 69.5153 46.8458 69.5073Z" fill="#373737"/>
<path d="M81.63 126H44.37C9.1215 126 0 116.878 0 81.63V44.37C0 9.1215 9.1215 0 44.37 0H81.6255C116.879 0 126 9.1215 126 44.37V81.63C126 116.878 116.878 126 81.63 126ZM44.37 4.5C11.5785 4.5 4.5 11.5785 4.5 44.37V81.63C4.5 114.421 11.5785 121.5 44.37 121.5H81.6255C114.417 121.5 121.495 114.421 121.495 81.63V44.37C121.5 11.5785 114.421 4.5 81.63 4.5H44.37Z" fill="#373737"/>
<defs>
<filter id="filter0_d_194_244" x="0" y="0" width="134" height="134" filterUnits="userSpaceOnUse" color-interpolation-filters="sRGB">
<feFlood flood-opacity="0" result="BackgroundImageFix"/>
<feColorMatrix in="SourceAlpha" type="matrix" values="0 0 0 0 0 0 0 0 0 0 0 0 0 0 0 0 0 0 127 0" result="hardAlpha"/>
<feMorphology radius="4" operator="erode" in="SourceAlpha" result="effect1_dropShadow_194_244"/>
<feOffset dx="4" dy="4"/>
<feGaussianBlur stdDeviation="4"/>
<feComposite in2="hardAlpha" operator="out"/>
<feColorMatrix type="matrix" values="0 0 0 0 0 0 0 0 0 0 0 0 0 0 0 0 0 0 0.25 0"/>
<feBlend mode="normal" in2="BackgroundImageFix" result="effect1_dropShadow_194_244"/>
<feBlend mode="normal" in="SourceGraphic" in2="effect1_dropShadow_194_244" result="shape"/>
</filter>
</defs>
</svg>
