<svg width="10" height="16" viewBox="0 0 10 16" fill="none" xmlns="http://www.w3.org/2000/svg">
<path d="M8.625 16C8.26953 16 7.95508 15.877 7.68164 15.6309L1.11914 9.06836C0.873047 8.79492 0.75 8.48047 0.75 8.125C0.75 7.76953 0.873047 7.45508 1.11914 7.18164L7.68164 0.619141C7.95508 0.373047 8.26953 0.25 8.625 0.25C8.98047 0.25 9.29492 0.373047 9.56836 0.619141C9.81445 0.892578 9.9375 1.20703 9.9375 1.5625C9.9375 1.91797 9.81445 2.23242 9.56836 2.50586L3.9082 8.125L9.56836 13.7441C9.81445 14.0176 9.9375 14.332 9.9375 14.6875C9.9375 15.043 9.81445 15.3574 9.56836 15.6309C9.29492 15.877 8.98047 16 8.625 16Z" fill="#D53E34"/>
</svg>
