<svg width="10" height="16" viewBox="0 0 10 16" fill="none" xmlns="http://www.w3.org/2000/svg">
<path d="M1.375 16C1.01953 16 0.705078 15.877 0.431641 15.6309C0.185547 15.3574 0.0625 15.043 0.0625 14.6875C0.0625 14.332 0.185547 14.0176 0.431641 13.7441L6.0918 8.125L0.431641 2.50586C0.185547 2.23242 0.0625 1.91797 0.0625 1.5625C0.0625 1.20703 0.185547 0.892578 0.431641 0.619141C0.705078 0.373047 1.01953 0.25 1.375 0.25C1.73047 0.25 2.04492 0.373047 2.31836 0.619141L8.88086 7.18164C9.12695 7.45508 9.25 7.76953 9.25 8.125C9.25 8.48047 9.12695 8.79492 8.88086 9.06836L2.31836 15.6309C2.04492 15.877 1.73047 16 1.375 16Z" fill="#D53E34"/>
</svg>
